Coordinates
version=1
nRows=4
nColumns=40
inDegrees=yes

Units are S.I. units (second, meters, Newtons, ...)
If the header above contains a line with 'inDegrees', this indicates whether rotational values are in degrees (yes) or radians (no).

endheader
time	pelvis_tilt	pelvis_list	pelvis_rotation	pelvis_tx	pelvis_ty	pelvis_tz	hip_flexion_r	hip_adduction_r	hip_rotation_r	knee_angle_r	knee_angle_r_beta	ankle_angle_r	subtalar_angle_r	mtp_angle_r	hip_flexion_l	hip_adduction_l	hip_rotation_l	knee_angle_l	knee_angle_l_beta	ankle_angle_l	subtalar_angle_l	mtp_angle_l	lumbar_extension	lumbar_bending	lumbar_rotation	arm_flex_r	arm_add_r	arm_rot_r	elbow_flex_r	pro_sup_r	wrist_flex_r	wrist_dev_r	arm_flex_l	arm_add_l	arm_rot_l	elbow_flex_l	pro_sup_l	wrist_flex_l	wrist_dev_l
     10.00000000000000000000	    -19.35851717553528672511	     -4.69690421655604239959	    179.66707044583566244000	      0.26693035940932474670	      0.62390687099297958973	     -0.96337269397015656835	     56.99500727611367523195	    -47.60655940186197199182	     10.58240219063966414126	     87.63138499101371792221	      1.52945619617593098205	     15.09087044512564190768	      0.00000000000000000000	      0.00000000000000000000	     40.81035235170065789134	    -49.81678939429345831513	     -6.92638557881075200839	     75.77166663518850953096	      1.32246506250757267509	      9.10597414744675859311	      0.00000000000000000000	      0.00000000000000000000	    -71.64799431672884111322	     -5.83173216562401197649	     -5.76334340315755344619	     43.15373547881615934330	      5.26759976656930373196	     28.46990787871565586897	      2.64453538972319890377	     10.82973787450260161336	      0.00000000000000000000	      0.00000000000000000000	     52.17875652022549815001	    -12.32817381627340580508	     82.50318655850755078518	      7.52916543495477874615	     82.14731690268028785340	      0.00000000000000000000	      0.00000000000000000000
     10.00500000000000078160	    -19.44347190429674654411	     -4.70694348041320065335	    179.67061671454942484161	      0.26671190394527943823	      0.62430124678454057552	     -0.96338325610174857516	     56.82425055070163466553	    -47.60783623991142832210	     10.55300722843270833096	     87.60360658521948096222	      1.52897137153386641906	     15.11310850935009142404	      0.00000000000000000000	      0.00000000000000000000	     40.66472954142590623405	    -49.81738267212318760357	     -6.98123196234406684368	     75.75451035726469228848	      1.32216562897041467473	      9.09782984764710711545	      0.00000000000000000000	      0.00000000000000000000	    -71.74718466414967110723	     -5.82361874351922725879	     -5.80133894201820776715	     43.15105048607890125822	      5.27152442235619744793	     28.56786536872214199434	      2.70791416519778449512	     11.03336572903911516619	      0.00000000000000000000	      0.00000000000000000000	     52.18977728707728402924	    -12.38929220145665688335	     82.72532329987862453891	      7.61076468148770590716	     82.10502723003580172190	      0.00000000000000000000	      0.00000000000000000000
     10.00999999999999978684	    -19.40971188745480446869	     -4.70029985382832027341	    179.67723599009144663796	      0.26643379491093233113	      0.62448116575378265214	     -0.96335586925117411283	     56.78372572248756711133	    -47.57155841072199109476	     10.55507664137486933953	     87.58500854349072994864	      1.52864677447127639276	     15.14760275172463543925	      0.00000000000000000000	      0.00000000000000000000	     40.67859094689517007737	    -49.81701191191516642220	     -6.99356735163289311430	     75.77767893076095617744	      1.32256999686091480939	      9.18255871206356033554	      0.00000000000000000000	      0.00000000000000000000	    -71.72689595643228699373	     -5.81070020072714932269	     -5.83603267549251558677	     43.11220972364422010514	      5.30011357093771362514	     28.66461824896458310263	      2.76931896901445062653	     11.06887799196809396562	      0.00000000000000000000	      0.00000000000000000000	     52.19948835305327605738	    -12.44349407894369363703	     82.72672552474801932476	      7.65416759283071179709	     82.32236627262180661546	      0.00000000000000000000	      0.00000000000000000000
     10.01500000000000056843	    -19.40599958428703786240	     -4.73524967186543754849	    179.66590425345825110526	      0.26616273958530223265	      0.62481798767333396327	     -0.96341163686043873593	     56.74461974900050620363	    -47.55481295246918449493	     10.59485085099274392917	     87.54840436057892816279	      1.52800791095946331133	     15.14657404075735591675	      0.00000000000000000000	      0.00000000000000000000	     40.52478750026897102998	    -49.81418132355031502811	     -7.17145269142384567118	     75.68695202473089977957	      1.32098651363054298002	      9.18033943565607302162	      0.00000000000000000000	      0.00000000000000000000	    -71.74441520501245861396	     -5.82380193980533444886	     -5.89852585109439431221	     43.20092378094378915421	      5.35837979835180178156	     28.69205466063400677967	      2.77712643126055436227	     10.06593989668670374726	      0.00000000000000000000	      0.00000000000000000000	     52.19826041170649233436	    -12.41439835720572304467	     82.26948234106738766513	      7.54967129633849687309	     83.41160635537278267293	      0.00000000000000000000	      0.00000000000000000000
